<mxfile host="65bd71144e">
    <diagram id="fYCV347V0tJCkbbIrt5x" name="Page-1">
        <mxGraphModel dx="312" dy="520" grid="0" gridSize="10" guides="1" tooltips="1" connect="1" arrows="1" fold="1" page="1" pageScale="1" pageWidth="583" pageHeight="827" background="#ffffff" math="0" shadow="0">
            <root>
                <mxCell id="0"/>
                <mxCell id="1" parent="0"/>
                <mxCell id="2" value="Faire les suggestions" style="html=1;dashed=0;whitespace=wrap;fillColor=none;labelBorderColor=none;fontColor=#000000;strokeWidth=2;strokeColor=#000000;" parent="1" vertex="1">
                    <mxGeometry x="506" y="50" width="217" height="49" as="geometry"/>
                </mxCell>
                <mxCell id="3" value="" style="html=1;dashed=0;whitespace=wrap;shape=partialRectangle;right=0;left=0;labelBorderColor=none;fontColor=#000000;strokeColor=#000000;strokeWidth=2;fillColor=none;rotation=90;" parent="1" vertex="1">
                    <mxGeometry x="600.5" y="99" width="28" height="30" as="geometry"/>
                </mxCell>
                <mxCell id="4" value="" style="strokeWidth=2;html=1;shape=mxgraph.flowchart.annotation_1;align=left;pointerEvents=1;labelBorderColor=none;fontColor=#000000;fillColor=none;rotation=90;strokeColor=#000000;" parent="1" vertex="1">
                    <mxGeometry x="589.5" y="-27" width="50" height="363" as="geometry"/>
                </mxCell>
                <mxCell id="5" value="Combinaisons&lt;br&gt;simples" style="html=1;dashed=0;whitespace=wrap;labelBorderColor=none;fontColor=#000000;strokeColor=#000000;strokeWidth=2;fillColor=none;" parent="1" vertex="1">
                    <mxGeometry x="383" y="180" width="100" height="50" as="geometry"/>
                </mxCell>
                <mxCell id="7" value="Combinaisons&lt;br&gt;complexes" style="html=1;dashed=0;whitespace=wrap;labelBorderColor=none;fontColor=#000000;strokeColor=#000000;strokeWidth=2;fillColor=none;" parent="1" vertex="1">
                    <mxGeometry x="746" y="180" width="100" height="50" as="geometry"/>
                </mxCell>
                <mxCell id="8" value="" style="html=1;dashed=0;whitespace=wrap;shape=partialRectangle;right=0;left=0;labelBorderColor=none;fontColor=#000000;strokeColor=#000000;strokeWidth=2;fillColor=none;rotation=90;" parent="1" vertex="1">
                    <mxGeometry x="419" y="230" width="28" height="30" as="geometry"/>
                </mxCell>
                <mxCell id="9" value="" style="strokeWidth=2;html=1;shape=mxgraph.flowchart.annotation_1;align=left;pointerEvents=1;labelBorderColor=none;fontColor=#000000;fillColor=none;rotation=90;strokeColor=#000000;" parent="1" vertex="1">
                    <mxGeometry x="530.85" y="0.85" width="50" height="568.82" as="geometry"/>
                </mxCell>
                <mxCell id="11" value="Faire combinaisons&lt;br&gt;&amp;nbsp;possibles" style="html=1;dashed=0;whitespace=wrap;labelBorderColor=none;fontColor=#000000;strokeColor=#000000;strokeWidth=2;fillColor=none;" parent="1" vertex="1">
                    <mxGeometry x="204" y="310" width="122" height="50" as="geometry"/>
                </mxCell>
                <mxCell id="13" value="Trier par combinaisons" style="rounded=0;whiteSpace=wrap;html=1;labelBorderColor=none;fontColor=#000000;strokeColor=#000000;strokeWidth=2;fillColor=none;" parent="1" vertex="1">
                    <mxGeometry x="782.5" y="308" width="113" height="51" as="geometry"/>
                </mxCell>
                <mxCell id="15" value="{liste ingrédients}" style="text;html=1;align=center;verticalAlign=middle;resizable=0;points=[];autosize=1;strokeColor=none;fillColor=none;fontColor=#000000;" parent="1" vertex="1">
                    <mxGeometry x="278" y="196" width="101" height="18" as="geometry"/>
                </mxCell>
                <mxCell id="16" value="{liste ingrédients}" style="text;html=1;align=center;verticalAlign=middle;resizable=0;points=[];autosize=1;strokeColor=none;fillColor=none;fontColor=#000000;" parent="1" vertex="1">
                    <mxGeometry x="96" y="326" width="101" height="18" as="geometry"/>
                </mxCell>
                <mxCell id="17" value="{liste ingrédients}" style="text;html=1;align=center;verticalAlign=middle;resizable=0;points=[];autosize=1;strokeColor=none;fillColor=none;fontColor=#000000;" parent="1" vertex="1">
                    <mxGeometry x="403" y="65.5" width="101" height="18" as="geometry"/>
                </mxCell>
                <mxCell id="18" value="{liste suggestions}" style="text;html=1;align=center;verticalAlign=middle;resizable=0;points=[];autosize=1;strokeColor=none;fillColor=none;fontColor=#000000;" parent="1" vertex="1">
                    <mxGeometry x="486" y="196" width="107" height="18" as="geometry"/>
                </mxCell>
                <mxCell id="19" value="{liste suggestions}" style="text;html=1;align=center;verticalAlign=middle;resizable=0;points=[];autosize=1;strokeColor=none;fillColor=none;fontColor=#000000;" parent="1" vertex="1">
                    <mxGeometry x="725" y="65.5" width="107" height="18" as="geometry"/>
                </mxCell>
                <mxCell id="22" value="{Liste des combinaisons}" style="text;html=1;align=center;verticalAlign=middle;resizable=0;points=[];autosize=1;strokeColor=none;fillColor=none;fontColor=#000000;" parent="1" vertex="1">
                    <mxGeometry x="340" y="328" width="143" height="18" as="geometry"/>
                </mxCell>
                <mxCell id="23" value="{Liste suggestions}" style="text;html=1;align=center;verticalAlign=middle;resizable=0;points=[];autosize=1;strokeColor=none;fillColor=none;fontColor=#000000;" parent="1" vertex="1">
                    <mxGeometry x="899.5" y="328" width="111" height="18" as="geometry"/>
                </mxCell>
                <mxCell id="25" value="{liste suggestions}" style="text;html=1;align=center;verticalAlign=middle;resizable=0;points=[];autosize=1;strokeColor=none;fillColor=none;fontColor=#000000;" parent="1" vertex="1">
                    <mxGeometry x="637" y="196" width="107" height="18" as="geometry"/>
                </mxCell>
                <mxCell id="26" value="{liste suggestions}" style="text;html=1;align=center;verticalAlign=middle;resizable=0;points=[];autosize=1;strokeColor=none;fillColor=none;fontColor=#000000;" parent="1" vertex="1">
                    <mxGeometry x="846" y="196" width="107" height="18" as="geometry"/>
                </mxCell>
                <mxCell id="27" value="" style="html=1;dashed=0;whitespace=wrap;shape=partialRectangle;right=0;left=0;labelBorderColor=none;fontColor=#000000;strokeColor=#000000;strokeWidth=2;fillColor=none;rotation=90;" parent="1" vertex="1">
                    <mxGeometry x="826.5" y="356" width="25" height="30" as="geometry"/>
                </mxCell>
                <mxCell id="29" value="" style="verticalLabelPosition=bottom;verticalAlign=top;html=1;shape=mxgraph.flowchart.on-page_reference;labelBorderColor=none;fontColor=#000000;strokeColor=#000000;strokeWidth=2;fillColor=none;" parent="1" vertex="1">
                    <mxGeometry x="804" y="383" width="71" height="71" as="geometry"/>
                </mxCell>
                <mxCell id="30" value="&lt;font style=&quot;font-size: 27px&quot;&gt;&amp;gt;&lt;/font&gt;" style="text;html=1;align=center;verticalAlign=middle;resizable=0;points=[];autosize=1;strokeColor=none;fillColor=none;fontColor=#000000;rotation=-75;" parent="1" vertex="1">
                    <mxGeometry x="857" y="411" width="26" height="24" as="geometry"/>
                </mxCell>
                <mxCell id="33" value="" style="strokeWidth=2;html=1;shape=mxgraph.flowchart.annotation_2;align=left;labelPosition=right;pointerEvents=1;labelBorderColor=none;fontSize=27;fontColor=#000000;fillColor=none;rotation=90;strokeColor=#000000;" parent="1" vertex="1">
                    <mxGeometry x="815" y="304" width="48" height="353" as="geometry"/>
                </mxCell>
                <mxCell id="37" value="" style="verticalLabelPosition=bottom;verticalAlign=top;html=1;shape=mxgraph.flowchart.on-page_reference;labelBorderColor=none;fontColor=#000000;strokeColor=#000000;strokeWidth=2;fillColor=none;" parent="1" vertex="1">
                    <mxGeometry x="628" y="503.5" width="71" height="71" as="geometry"/>
                </mxCell>
                <mxCell id="38" value="&lt;font style=&quot;font-size: 27px&quot;&gt;&amp;gt;&lt;/font&gt;" style="text;html=1;align=center;verticalAlign=middle;resizable=0;points=[];autosize=1;strokeColor=none;fillColor=none;fontColor=#000000;rotation=-75;" parent="1" vertex="1">
                    <mxGeometry x="681" y="531.5" width="26" height="24" as="geometry"/>
                </mxCell>
                <mxCell id="41" value="" style="html=1;dashed=0;whitespace=wrap;shape=partialRectangle;right=0;left=0;labelBorderColor=none;fontColor=#000000;strokeColor=#000000;strokeWidth=2;fillColor=none;rotation=90;" parent="1" vertex="1">
                    <mxGeometry x="649" y="570" width="25" height="30" as="geometry"/>
                </mxCell>
                <mxCell id="42" value="" style="strokeWidth=2;html=1;shape=mxgraph.flowchart.annotation_1;align=left;pointerEvents=1;labelBorderColor=none;fontSize=12;fontColor=#000000;fillColor=none;rotation=90;strokeColor=#000000;" parent="1" vertex="1">
                    <mxGeometry x="629" y="479" width="50" height="288" as="geometry"/>
                </mxCell>
                <mxCell id="43" value="regarder nb recettes" style="html=1;dashed=0;whitespace=wrap;labelBorderColor=none;fontSize=12;fontColor=#000000;strokeColor=#000000;strokeWidth=2;fillColor=none;" parent="1" vertex="1">
                    <mxGeometry x="431" y="648" width="157" height="71" as="geometry"/>
                </mxCell>
                <mxCell id="44" value="" style="line;strokeWidth=2;html=1;labelBorderColor=none;fontSize=12;fontColor=#000000;fillColor=none;strokeColor=#000000;rotation=90;" parent="1" vertex="1">
                    <mxGeometry x="636.75" y="617.75" width="49.5" height="10" as="geometry"/>
                </mxCell>
                <mxCell id="45" value="placer" style="html=1;dashed=0;whitespace=wrap;labelBorderColor=none;fontSize=12;fontColor=#000000;strokeColor=#000000;strokeWidth=2;fillColor=none;" parent="1" vertex="1">
                    <mxGeometry x="729" y="649" width="128" height="70" as="geometry"/>
                </mxCell>
                <mxCell id="46" value="" style="endArrow=none;html=1;fontSize=12;fontColor=#000000;strokeColor=#000000;strokeWidth=2;entryX=0;entryY=0.5;entryDx=0;entryDy=0;entryPerimeter=0;exitX=1;exitY=0.5;exitDx=0;exitDy=0;exitPerimeter=0;" parent="1" source="9" target="9" edge="1">
                    <mxGeometry width="50" height="50" relative="1" as="geometry">
                        <mxPoint x="512" y="427" as="sourcePoint"/>
                        <mxPoint x="562" y="377" as="targetPoint"/>
                    </mxGeometry>
                </mxCell>
                <mxCell id="48" value="création d'un dico" style="html=1;dashed=0;whitespace=wrap;labelBorderColor=none;fontColor=#000000;strokeColor=#000000;strokeWidth=2;fillColor=none;" parent="1" vertex="1">
                    <mxGeometry x="515" y="312" width="122" height="50" as="geometry"/>
                </mxCell>
                <mxCell id="49" value="{dico des combinaisons}" style="text;html=1;align=center;verticalAlign=middle;resizable=0;points=[];autosize=1;strokeColor=none;fillColor=none;fontColor=#000000;" parent="1" vertex="1">
                    <mxGeometry x="639" y="328" width="139" height="18" as="geometry"/>
                </mxCell>
            </root>
        </mxGraphModel>
    </diagram>
</mxfile>